<svg width="34" height="24" viewBox="0 0 34 24" fill="none" xmlns="http://www.w3.org/2000/svg">
<path d="M3.77778 0C2.77585 0 1.81496 0.38901 1.10649 1.08145C0.398015 1.77389 0 2.71305 0 3.69231V20.3077C0 21.287 0.398015 22.2261 1.10649 22.9185C1.81496 23.611 2.77585 24 3.77778 24H9.44444V0H3.77778ZM30.2222 0H24.5556V24H30.2222C31.2241 24 32.185 23.611 32.8935 22.9185C33.602 22.2261 34 21.287 34 20.3077V3.69231C34 2.71305 33.602 1.77389 32.8935 1.08145C32.185 0.38901 31.2241 0 30.2222 0Z" fill="#D52B1E"/>
<path d="M9.44444 0H24.5556V24H9.44444V0Z" fill="#EEEEEE"/>
<path d="M17.5808 15.7966C18.7123 15.9249 19.7266 16.0403 20.8571 16.1668L20.5691 15.2418C20.5479 15.1623 20.5508 15.0784 20.5774 15.0004C20.6041 14.9224 20.6533 14.8536 20.7192 14.8025L24.0049 12.1865L23.3249 11.8735C23.0256 11.7692 23.1077 11.604 23.2163 11.2071L23.7178 9.42L21.8091 9.81415C21.6231 9.84185 21.4993 9.72646 21.471 9.61569L21.2245 8.77477L19.7153 10.4308C19.5009 10.6966 19.0664 10.6966 19.2015 10.0837L19.8466 6.72923L18.9805 7.16769C18.7378 7.30062 18.4951 7.32277 18.36 7.08554L17.1653 4.90154L15.9706 7.08554C15.8346 7.32277 15.5918 7.30062 15.3491 7.16769L14.484 6.72923L15.1291 10.0837C15.2651 10.6966 14.8297 10.6966 14.6153 10.4308L13.1061 8.77569L12.8605 9.61662C12.8322 9.72738 12.7075 9.84277 12.5214 9.81508L10.6127 9.42092L11.1142 11.208C11.2209 11.6049 11.3041 11.7702 11.0047 11.8745L10.3247 12.1874L13.6104 14.8034C13.7407 14.9022 13.8068 15.0803 13.7596 15.2428L13.4716 16.1677L16.7488 15.7975C16.8489 15.7975 16.915 15.852 16.9141 15.9646L16.7119 19.3837H17.6148L17.4137 15.9646C17.4156 15.8511 17.4807 15.7966 17.5808 15.7966Z" fill="#D52B1E"/>
</svg>
