<svg width="58" height="44" viewBox="0 0 58 44" fill="none" xmlns="http://www.w3.org/2000/svg">
<rect x="0.411133" width="57.5893" height="43.7679" rx="10" fill="#ED2C2E"/>
<path d="M14.7183 10.6225L13.4588 14.3974H12.6973L14.284 10.0422H14.7704L14.7183 10.6225ZM15.7723 14.3974L14.5098 10.6225L14.4548 10.0422H14.9442L16.5367 14.3974H15.7723ZM15.7115 12.7822V13.3774H13.4182V12.7822H15.7115Z" fill="white"/>
<path d="M19.2266 13.2757C19.2266 13.186 19.2131 13.1062 19.1861 13.0364C19.161 12.9666 19.1156 12.9028 19.05 12.845C18.9843 12.7871 18.8917 12.7313 18.772 12.6775C18.6543 12.6216 18.5037 12.5648 18.3203 12.507C18.1196 12.4432 17.9342 12.3724 17.7644 12.2946C17.5964 12.2148 17.4497 12.1231 17.3243 12.0194C17.1988 11.9137 17.1013 11.7931 17.0318 11.6575C16.9623 11.5199 16.9276 11.3614 16.9276 11.1819C16.9276 11.0044 16.9633 10.8429 17.0347 10.6973C17.1081 10.5517 17.2113 10.4261 17.3445 10.3204C17.4796 10.2127 17.6389 10.13 17.8223 10.0722C18.0057 10.0123 18.2083 9.98242 18.4303 9.98242C18.743 9.98242 19.0123 10.0422 19.2382 10.1619C19.466 10.2815 19.6406 10.4421 19.7623 10.6435C19.8858 10.8449 19.9476 11.0672 19.9476 11.3105H19.2266C19.2266 11.1669 19.1967 11.0403 19.1368 10.9306C19.0789 10.819 18.9901 10.7312 18.8704 10.6674C18.7527 10.6036 18.6031 10.5717 18.4216 10.5717C18.2498 10.5717 18.107 10.5986 17.9931 10.6524C17.8792 10.7063 17.7943 10.7791 17.7383 10.8708C17.6823 10.9625 17.6543 11.0662 17.6543 11.1819C17.6543 11.2636 17.6727 11.3384 17.7094 11.4062C17.746 11.472 17.802 11.5338 17.8773 11.5917C17.9526 11.6475 18.0472 11.7004 18.1611 11.7502C18.2749 11.8001 18.4091 11.8479 18.5635 11.8938C18.7971 11.9656 19.0007 12.0453 19.1745 12.1331C19.3482 12.2188 19.493 12.3165 19.6088 12.4262C19.7246 12.5359 19.8115 12.6605 19.8694 12.8001C19.9273 12.9377 19.9563 13.0942 19.9563 13.2697C19.9563 13.4532 19.9205 13.6187 19.8491 13.7663C19.7777 13.9118 19.6754 14.0365 19.5422 14.1402C19.4109 14.2419 19.2527 14.3206 19.0673 14.3765C18.884 14.4303 18.6793 14.4572 18.4535 14.4572C18.2508 14.4572 18.051 14.4293 17.8541 14.3735C17.6592 14.3176 17.4816 14.2329 17.3214 14.1192C17.1611 14.0036 17.0337 13.86 16.9392 13.6885C16.8446 13.515 16.7973 13.3126 16.7973 13.0813H17.524C17.524 13.2229 17.5472 13.3435 17.5935 13.4432C17.6418 13.5429 17.7084 13.6247 17.7933 13.6885C17.8783 13.7503 17.9767 13.7962 18.0887 13.8261C18.2026 13.856 18.3242 13.8709 18.4535 13.8709C18.6234 13.8709 18.7652 13.846 18.8791 13.7962C18.995 13.7463 19.0818 13.6765 19.1397 13.5868C19.1976 13.4971 19.2266 13.3934 19.2266 13.2757Z" fill="white"/>
<path d="M24.2937 13.2757C24.2937 13.186 24.2802 13.1062 24.2532 13.0364C24.2281 12.9666 24.1827 12.9028 24.1171 12.845C24.0514 12.7871 23.9588 12.7313 23.8391 12.6775C23.7214 12.6216 23.5708 12.5648 23.3874 12.507C23.1867 12.4432 23.0013 12.3724 22.8315 12.2946C22.6635 12.2148 22.5168 12.1231 22.3914 12.0194C22.2659 11.9137 22.1684 11.7931 22.0989 11.6575C22.0294 11.5199 21.9947 11.3614 21.9947 11.1819C21.9947 11.0044 22.0304 10.8429 22.1018 10.6973C22.1752 10.5517 22.2784 10.4261 22.4116 10.3204C22.5468 10.2127 22.706 10.13 22.8894 10.0722C23.0728 10.0123 23.2755 9.98242 23.4974 9.98242C23.8102 9.98242 24.0794 10.0422 24.3053 10.1619C24.5331 10.2815 24.7078 10.4421 24.8294 10.6435C24.9529 10.8449 25.0147 11.0672 25.0147 11.3105H24.2937C24.2937 11.1669 24.2638 11.0403 24.2039 10.9306C24.146 10.819 24.0572 10.7312 23.9376 10.6674C23.8198 10.6036 23.6702 10.5717 23.4888 10.5717C23.317 10.5717 23.1741 10.5986 23.0602 10.6524C22.9463 10.7063 22.8614 10.7791 22.8054 10.8708C22.7494 10.9625 22.7214 11.0662 22.7214 11.1819C22.7214 11.2636 22.7398 11.3384 22.7765 11.4062C22.8131 11.472 22.8691 11.5338 22.9444 11.5917C23.0197 11.6475 23.1143 11.7004 23.2282 11.7502C23.342 11.8001 23.4762 11.8479 23.6306 11.8938C23.8642 11.9656 24.0678 12.0453 24.2416 12.1331C24.4153 12.2188 24.5601 12.3165 24.6759 12.4262C24.7917 12.5359 24.8786 12.6605 24.9365 12.8001C24.9944 12.9377 25.0234 13.0942 25.0234 13.2697C25.0234 13.4532 24.9876 13.6187 24.9162 13.7663C24.8448 13.9118 24.7425 14.0365 24.6093 14.1402C24.478 14.2419 24.3198 14.3206 24.1344 14.3765C23.9511 14.4303 23.7464 14.4572 23.5206 14.4572C23.3179 14.4572 23.1181 14.4293 22.9212 14.3735C22.7263 14.3176 22.5487 14.2329 22.3885 14.1192C22.2282 14.0036 22.1008 13.86 22.0063 13.6885C21.9117 13.515 21.8644 13.3126 21.8644 13.0813H22.5912C22.5912 13.2229 22.6143 13.3435 22.6606 13.4432C22.7089 13.5429 22.7755 13.6247 22.8604 13.6885C22.9454 13.7503 23.0438 13.7962 23.1558 13.8261C23.2697 13.856 23.3913 13.8709 23.5206 13.8709C23.6905 13.8709 23.8323 13.846 23.9462 13.7962C24.0621 13.7463 24.1489 13.6765 24.2068 13.5868C24.2647 13.4971 24.2937 13.3934 24.2937 13.2757Z" fill="white"/>
<path d="M28.4256 13.8022V14.3974H26.1873V13.8022H28.4256ZM26.3929 10.0422V14.3974H25.6662V10.0422H26.3929ZM28.1331 11.8609V12.4471H26.1873V11.8609H28.1331ZM28.4111 10.0422V10.6405H26.1873V10.0422H28.4111Z" fill="white"/>
<path d="M31.7785 13.8022V14.3974H29.5403V13.8022H31.7785ZM29.7459 10.0422V14.3974H29.0191V10.0422H29.7459ZM31.4861 11.8609V12.4471H29.5403V11.8609H31.4861ZM31.7641 10.0422V10.6405H29.5403V10.0422H31.7641Z" fill="white"/>
<path d="M35.7164 10.0422V14.3974H34.9896L33.0989 11.2776V14.3974H32.3721V10.0422H33.0989L34.9954 13.168V10.0422H35.7164Z" fill="white"/>
<path d="M41.4205 12.1002V12.3395C41.4205 12.6685 41.379 12.9636 41.296 13.2249C41.213 13.4861 41.0943 13.7084 40.9399 13.8919C40.7874 14.0753 40.604 14.2159 40.3897 14.3136C40.1755 14.4094 39.938 14.4572 39.6774 14.4572C39.4188 14.4572 39.1823 14.4094 38.968 14.3136C38.7557 14.2159 38.5714 14.0753 38.415 13.8919C38.2586 13.7084 38.137 13.4861 38.0502 13.2249C37.9652 12.9636 37.9228 12.6685 37.9228 12.3395V12.1002C37.9228 11.7711 37.9652 11.477 38.0502 11.2178C38.1351 10.9565 38.2548 10.7342 38.4092 10.5507C38.5656 10.3653 38.7499 10.2247 38.9622 10.129C39.1765 10.0313 39.413 9.98242 39.6716 9.98242C39.9322 9.98242 40.1697 10.0313 40.3839 10.129C40.5982 10.2247 40.7825 10.3653 40.937 10.5507C41.0914 10.7342 41.2101 10.9565 41.2931 11.2178C41.378 11.477 41.4205 11.7711 41.4205 12.1002ZM40.6937 12.3395V12.0942C40.6937 11.8509 40.6706 11.6365 40.6243 11.4511C40.5799 11.2636 40.5133 11.1071 40.4245 10.9815C40.3376 10.8539 40.2305 10.7581 40.1031 10.6943C39.9757 10.6285 39.8319 10.5956 39.6716 10.5956C39.5114 10.5956 39.3686 10.6285 39.2431 10.6943C39.1176 10.7581 39.0105 10.8539 38.9217 10.9815C38.8348 11.1071 38.7682 11.2636 38.7219 11.4511C38.6756 11.6365 38.6524 11.8509 38.6524 12.0942V12.3395C38.6524 12.5827 38.6756 12.7981 38.7219 12.9856C38.7682 13.173 38.8358 13.3315 38.9246 13.4612C39.0153 13.5888 39.1234 13.6855 39.2489 13.7513C39.3744 13.8151 39.5172 13.847 39.6774 13.847C39.8396 13.847 39.9834 13.8151 40.1089 13.7513C40.2343 13.6855 40.3405 13.5888 40.4274 13.4612C40.5142 13.3315 40.5799 13.173 40.6243 12.9856C40.6706 12.7981 40.6937 12.5827 40.6937 12.3395Z" fill="white"/>
<path d="M45.4916 10.0422V14.3974H44.7648L42.874 11.2776V14.3974H42.1473V10.0422H42.874L44.7706 13.168V10.0422H45.4916Z" fill="white"/>
<path d="M22.4808 16.375V34.5539H18.0726V16.375H22.4808ZM27.9817 16.375V19.7586H12.6973V16.375H27.9817Z" fill="white"/>
<path d="M36.974 30.2713L40.7794 16.375H45.7151L39.5486 34.5539H36.3586L36.974 30.2713ZM33.5202 16.375L37.3256 30.2713L37.9662 34.5539H34.7385L28.6096 16.375H33.5202Z" fill="white"/>
</svg>
