<svg width="350" height="75" viewBox="0 0 350 75" fill="none" xmlns="http://www.w3.org/2000/svg">
<path d="M329.131 23.0739C332.589 19.6785 334.18 15.1967 333.834 10.7148L338.053 14.8572L346.421 23.0739C351.193 27.7594 351.193 35.365 346.421 40.0506L326.227 59.8793C321.454 64.5649 313.709 64.5649 308.936 59.8793C304.164 55.1938 304.164 47.5882 308.936 42.9026L329.131 23.0739Z" fill="#FF4200"/>
<path d="M326.698 3.46473C331.577 8.08437 331.577 15.5829 326.698 20.2026L317.857 28.5715L309.017 20.2026C304.137 15.5829 304.137 8.08437 309.017 3.46473C313.897 -1.15491 321.818 -1.15491 326.698 3.46473Z" fill="#8F00FF"/>
<path d="M45.1965 15.6694C34.0343 15.6694 24.995 24.691 24.995 35.8313C24.995 46.9716 34.1028 55.9932 45.1965 55.9932C56.2901 55.9932 65.3979 46.9716 65.3979 35.8313C65.3979 24.691 56.3586 15.6694 45.1965 15.6694ZM45.1965 47.9284C38.4855 47.9284 33.0756 42.5291 33.0756 35.8313C33.0756 29.1334 38.5539 23.7342 45.1965 23.7342C51.839 23.7342 57.3173 29.1334 57.3173 35.8313C57.3173 42.5291 51.9074 47.9284 45.1965 47.9284ZM188.182 15.6694C183.662 15.6694 179.416 17.173 176.061 19.7018V7.60464C176.061 5.34925 174.28 3.57227 172.02 3.57227H167.98V55.9932H176.061V51.9608C179.416 54.4896 183.662 55.9932 188.182 55.9932C199.344 55.9932 208.383 46.9716 208.383 35.8313C208.383 24.691 199.344 15.6694 188.182 15.6694ZM188.182 47.9284C181.471 47.9284 176.061 42.5291 176.061 35.8313C176.061 29.1334 181.471 23.7342 188.182 23.7342C194.893 23.7342 200.302 29.1334 200.302 35.8313C200.302 42.5291 194.893 47.9284 188.182 47.9284ZM151.066 15.6694H159.146V53.6011C159.146 64.673 150.381 73.8997 139.287 74.1047C127.988 74.3097 118.743 65.2198 118.743 53.9428H123.263C125.112 53.9428 126.687 55.173 127.166 56.95C128.536 62.281 133.466 66.1766 139.287 66.0399C145.861 65.8349 151.066 60.2989 151.066 53.6694V47.8601C147.642 50.3889 143.396 51.8925 138.808 51.8925C127.646 51.8241 118.743 42.5291 118.743 31.3888V15.6694H122.784C125.044 15.6694 126.824 17.4464 126.824 19.7018V31.5255C126.824 38.0867 131.96 43.691 138.602 43.896C145.45 44.1011 151.066 38.5651 151.066 31.7989V15.6694ZM111.485 35.8313V55.9932H107.444C105.184 55.9932 103.404 54.2162 103.404 51.9608V35.8313C103.404 29.1334 97.9941 23.7342 91.2831 23.7342C84.5722 23.7342 79.1623 29.1334 79.1623 35.8313V55.9932H71.0817V15.6694H79.1623V19.7018C82.5178 17.173 86.7635 15.6694 91.2831 15.6694C102.445 15.6694 111.485 24.691 111.485 35.8313ZM20.2014 47.9284V55.9932C9.03929 55.9932 0 46.9716 0 35.8313V7.60464H4.04029C6.30011 7.60464 8.08058 9.38162 8.08058 11.637V15.6694H20.2014V23.7342H8.08058V35.8313C8.08058 42.4608 13.4905 47.9284 20.2014 47.9284ZM267.344 23.7342V35.8313C267.344 42.5291 272.754 47.9284 279.465 47.9284V55.9932C268.303 55.9932 259.263 46.9716 259.263 35.8313V7.60464H263.304C265.563 7.60464 267.344 9.38162 267.344 11.637V15.6694H279.465V23.7342H267.344ZM253.032 38.6334C253.169 37.745 253.237 36.7881 253.237 35.8313C253.237 24.4176 243.787 15.2593 232.282 15.6694C221.805 16.0795 213.314 24.5543 212.903 35.0111C212.492 46.4932 221.668 55.9248 233.104 55.9248C239.678 55.9248 245.499 52.7809 249.128 47.9968L246.663 46.5615C244.266 45.1946 241.253 45.1263 238.788 46.4248C236.802 47.5183 234.474 48.0651 232.008 47.7917C226.804 47.3133 222.49 43.5543 221.257 38.5651H253.032V38.6334ZM234.268 23.8025C238.925 24.2809 242.897 27.4931 244.403 31.7989H221.6C223.38 26.7413 228.448 23.1874 234.268 23.8025Z" fill="white"/>
</svg>
