<svg width="11" height="21" viewBox="0 0 11 21" fill="none" xmlns="http://www.w3.org/2000/svg">
<path d="M0.246618 1.45762L9.0135 10.5009L0.246619 19.5442C0.0896673 19.7058 0.00179927 19.9227 0.00179928 20.1486C0.00179928 20.3744 0.0896673 20.5913 0.246619 20.7529C0.322851 20.8311 0.413841 20.8933 0.514261 20.9357C0.614681 20.9781 0.722512 21 0.831438 21C0.940363 21 1.04819 20.9781 1.14861 20.9357C1.24903 20.8933 1.34002 20.8311 1.41626 20.7529L10.7446 11.1324C10.9083 10.9635 11 10.7369 11 10.5009C11 10.265 10.9083 10.0384 10.7446 9.86945L1.41806 0.248951C1.34177 0.170164 1.25055 0.107544 1.1498 0.064785C1.04905 0.0220279 0.940796 -4.11235e-08 0.831437 -3.63433e-08C0.722078 -3.15631e-08 0.613826 0.0220279 0.513073 0.064785C0.41232 0.107544 0.321107 0.170164 0.244818 0.248951C0.0878663 0.410526 -8.90513e-07 0.627426 -8.80641e-07 0.853287C-8.70768e-07 1.07915 0.0878663 1.29605 0.244818 1.45762L0.246618 1.45762Z" fill="#C5C5FF"/>
</svg>
