<svg width="178" height="39" viewBox="0 0 178 39" fill="none" xmlns="http://www.w3.org/2000/svg">
<g clip-path="url(#clip0_137_116)">
<path d="M12.6117 31.4717C11.8067 31.4717 11.0016 31.0182 10.5544 30.2926L0.536309 12.788C-0.0898221 11.6089 0.267967 10.1578 1.43078 9.43217C2.5936 8.79729 4.02475 9.16008 4.74033 10.3391L14.7584 27.7531C15.3845 28.9322 15.0268 30.3833 13.8639 31.1089C13.4167 31.381 13.0589 31.4717 12.6117 31.4717Z" fill="#F69220"/>
<path d="M37.8364 21.9488C37.8364 20.679 37.3892 19.5 36.6736 18.2302C35.6002 16.2348 34.3479 14.9651 32.6485 14.1488C31.2173 13.4232 29.6072 13.0604 27.9972 13.2418C28.5339 12.0627 28.8917 10.8837 28.9811 9.61391C29.16 7.79995 28.5339 6.1674 27.4605 4.17205C26.7449 2.90228 25.8505 1.9953 24.8665 1.26972C23.7932 0.634838 22.7198 0.18135 21.4675 0.0906523C20.2153 -4.54225e-05 18.963 0.0906522 17.6213 0.362745C17.1741 0.453443 16.7268 0.634838 16.2796 0.725536C16.1007 0.816234 15.9218 0.906931 15.7429 0.997629C14.9379 1.26972 12.8806 2.44879 12.165 2.90228L8.67659 4.98833H8.58715C7.33489 5.80461 6.88765 7.43716 7.60323 8.79763C8.13991 9.70461 9.03438 10.1581 9.92886 10.1581C10.3761 10.1581 10.8233 10.0674 11.2706 9.7953H11.36L16.9952 6.53019C17.5319 6.25809 18.0686 6.0767 18.6052 5.986C19.1419 5.8953 19.6786 5.986 20.2153 6.0767C20.752 6.25809 21.1992 6.53019 21.7359 6.89298C22.1831 7.25577 22.5409 7.70926 22.8987 8.25344C23.167 8.79763 23.4354 9.34181 23.5248 9.9767C23.6143 10.6116 23.6143 11.1558 23.5248 11.7C23.4354 12.2441 23.2565 12.6976 22.8987 13.1511C22.6304 13.6046 22.1831 13.9674 21.7359 14.2395L18.3369 16.3255L16.9057 17.1418L16.0113 17.686C14.759 18.4116 14.4012 19.9534 15.1168 21.2232C15.564 22.0395 16.4585 22.493 17.353 22.493C17.8002 22.493 18.2474 22.4023 18.6052 22.1302L20.4836 21.0418L25.3138 18.4116C25.8505 18.1395 26.2977 17.9581 26.8344 17.9581C27.3711 17.9581 27.9077 18.0488 28.355 18.2302C28.8917 18.4116 29.3389 18.6837 29.7861 19.0465C30.2334 19.4093 30.5912 19.8627 30.949 20.4069C31.2173 20.9511 31.3962 21.4953 31.4856 22.0395C31.5751 22.5837 31.5751 23.2186 31.3962 23.7627C31.3067 24.3069 31.0384 24.7604 30.6806 25.3046C30.3228 25.7581 29.8756 26.1209 29.3389 26.4837L21.0203 31.2907H20.5731L19.0525 32.1976L16.1007 33.8302C14.8485 34.5558 14.3118 36.1883 15.0273 37.4581C15.4746 38.3651 16.3691 38.9093 17.353 38.9093C17.8002 38.9093 18.2474 38.8186 18.6052 38.5465L25.761 34.6465L31.5751 31.472C32.8273 30.7465 33.9902 29.8395 34.9741 28.8418C35.958 27.8441 36.6736 26.7558 37.1208 25.6674C37.6575 24.3976 37.9258 23.2186 37.8364 21.9488Z" fill="#606060"/>
<path d="M111.898 26.6654C111.361 26.6654 110.735 26.6654 110.288 26.2119C109.841 25.7584 109.841 25.1236 109.841 24.5794V10.9747C109.841 10.4305 109.841 9.79565 110.288 9.34216C110.735 8.88867 111.361 8.88867 111.898 8.88867H116.907C120.396 8.88867 122.363 10.884 122.363 13.877C122.363 15.8724 121.111 17.1422 120.127 17.5956C121.201 18.1398 122.542 19.2282 122.542 21.5863C122.542 24.9422 120.306 26.7561 117.175 26.7561H111.898V26.6654ZM113.329 11.9724V16.0538H116.728C118.159 16.0538 118.964 15.2375 118.964 13.9677C118.964 12.698 118.159 11.8817 116.728 11.8817H113.329V11.9724ZM116.907 23.5817C118.428 23.5817 119.233 22.584 119.233 21.405C119.233 20.2259 118.517 19.2282 116.907 19.2282H113.329V23.5817H116.907Z" fill="#606060"/>
<path d="M127.998 21.132C127.998 22.8553 128.982 24.0344 130.861 24.0344C131.666 24.0344 132.471 23.853 133.097 23.3088C133.634 22.946 133.902 22.8553 134.26 22.8553C134.886 22.8553 135.512 23.4902 135.512 24.2158C135.512 24.8506 134.975 25.3948 134.26 25.8483C133.365 26.4832 132.202 26.7553 130.771 26.7553C127.73 26.7553 124.778 25.3948 124.778 20.0437C124.778 15.7809 127.015 13.332 130.413 13.332C133.902 13.332 135.87 15.8716 136.049 19.1367C136.049 19.6809 135.959 20.2251 135.601 20.5878C135.154 21.0413 134.707 21.0413 134.17 21.0413H127.998V21.132ZM132.65 17.5041C132.292 16.6878 131.576 16.1437 130.503 16.1437C129.43 16.1437 128.714 16.6878 128.356 17.5041C128.177 17.9576 128.088 18.3204 128.088 18.9553H133.007C132.918 18.3204 132.829 17.9576 132.65 17.5041Z" fill="#606060"/>
<path d="M139.179 16.5068H138.822C138.195 16.5068 138.017 16.5068 137.748 16.3254C137.39 16.144 137.122 15.7812 137.122 15.237C137.122 14.7835 137.301 14.3301 137.748 14.1487C138.017 13.9673 138.195 13.9673 138.822 13.9673H139.179V12.244C139.179 11.4277 139.179 11.1556 139.358 10.7928C139.627 10.3394 140.074 9.97656 140.789 9.97656C141.416 9.97656 141.952 10.2487 142.221 10.7928C142.399 11.1556 142.399 11.4277 142.399 12.244V13.9673H143.383C144.01 13.9673 144.188 13.9673 144.457 14.1487C144.815 14.3301 145.083 14.6928 145.083 15.237C145.083 15.6905 144.904 16.144 144.457 16.3254C144.188 16.5068 144.01 16.5068 143.383 16.5068H142.399V22.7649C142.399 23.3998 142.578 23.8533 143.473 23.944C143.92 23.944 144.188 24.0347 144.457 24.1254C144.815 24.3068 145.083 24.6696 145.083 25.3045C145.083 25.8487 144.815 26.3021 144.457 26.4835C144.188 26.6649 143.741 26.6649 143.115 26.6649H142.936C140.253 26.6649 139.179 24.851 139.179 22.9463V16.5068Z" fill="#606060"/>
<path d="M147.856 16.5068H147.498C146.872 16.5068 146.693 16.5068 146.425 16.3254C146.067 16.144 145.799 15.7812 145.799 15.237C145.799 14.7835 145.978 14.3301 146.425 14.1487C146.693 13.9673 146.872 13.9673 147.498 13.9673H147.856V12.244C147.856 11.4277 147.856 11.1556 148.035 10.7928C148.303 10.3394 148.751 9.97656 149.466 9.97656C150.092 9.97656 150.629 10.2487 150.897 10.7928C151.076 11.1556 151.076 11.4277 151.076 12.244V13.9673H152.06C152.686 13.9673 152.865 13.9673 153.133 14.1487C153.491 14.3301 153.76 14.6928 153.76 15.237C153.76 15.6905 153.581 16.144 153.133 16.3254C152.865 16.5068 152.686 16.5068 152.06 16.5068H151.076V22.7649C151.076 23.3998 151.255 23.8533 152.15 23.944C152.597 23.944 152.865 24.0347 153.133 24.1254C153.491 24.3068 153.76 24.6696 153.76 25.3045C153.76 25.8487 153.491 26.3021 153.133 26.4835C152.865 26.6649 152.418 26.6649 151.792 26.6649H151.613C148.929 26.6649 147.856 24.851 147.856 22.9463V16.5068Z" fill="#606060"/>
<path d="M158.232 21.132C158.232 22.8553 159.216 24.0344 161.094 24.0344C161.899 24.0344 162.704 23.853 163.33 23.3088C163.867 22.946 164.135 22.8553 164.493 22.8553C165.119 22.8553 165.745 23.4902 165.745 24.2158C165.745 24.8506 165.209 25.3948 164.493 25.8483C163.599 26.4832 162.436 26.7553 161.005 26.7553C157.963 26.7553 155.012 25.3948 155.012 20.0437C155.012 15.7809 157.248 13.332 160.647 13.332C164.135 13.332 166.103 15.8716 166.282 19.1367C166.282 19.6809 166.193 20.2251 165.835 20.5878C165.388 21.0413 164.94 21.0413 164.404 21.0413H158.232V21.132ZM162.883 17.5041C162.525 16.6878 161.81 16.1437 160.736 16.1437C159.663 16.1437 158.947 16.6878 158.59 17.5041C158.411 17.9576 158.321 18.3204 158.321 18.9553H163.241C163.062 18.3204 163.062 17.9576 162.883 17.5041Z" fill="#606060"/>
<path d="M174.958 13.4238C175.942 13.4238 176.568 13.6052 177.194 14.0587C177.641 14.4215 177.999 14.875 177.999 15.4192C177.999 15.8727 177.82 16.3262 177.552 16.5982C177.284 16.8703 176.836 17.0517 176.479 17.0517C176.121 17.0517 175.852 16.961 175.405 16.6889C175.047 16.5075 174.6 16.3262 174.153 16.3262C173.08 16.3262 172.006 17.0517 172.006 18.6843V24.4889C172.006 25.3052 172.006 25.5773 171.827 25.9401C171.559 26.3936 171.112 26.7564 170.396 26.7564C169.681 26.7564 169.233 26.4843 168.965 25.9401C168.786 25.5773 168.786 25.3052 168.786 24.4889V15.6913C168.786 14.875 168.786 14.6029 169.054 14.2401C169.323 13.7866 169.86 13.5145 170.396 13.5145C170.843 13.5145 171.201 13.6959 171.38 13.8773C171.648 14.1494 171.827 14.4215 171.827 14.875C172.543 14.1494 173.706 13.4238 174.958 13.4238Z" fill="#606060"/>
<path d="M56.6209 21.948L53.7586 16.2341V24.2155C53.7586 25.0318 53.7586 25.3039 53.4902 25.7573C53.2219 26.2108 52.6852 26.5736 51.9696 26.5736C51.254 26.5736 50.7174 26.2108 50.449 25.7573C50.2701 25.3039 50.1807 25.0318 50.1807 24.2155V10.8829C50.1807 10.1573 50.2701 9.61315 50.7173 9.25036C50.9857 8.97827 51.4329 8.79688 51.8802 8.79688C52.3274 8.79688 52.5957 8.88757 52.8641 9.06897C53.2219 9.25036 53.4902 9.70385 53.7586 10.1573L58.1415 18.5922L62.5244 10.1573C62.7033 9.70385 63.0611 9.34106 63.4189 9.06897C63.6872 8.88757 64.045 8.79688 64.4028 8.79688C64.85 8.79688 65.2078 8.97827 65.5656 9.25036C66.0128 9.70385 66.1023 10.1573 66.1023 10.8829V24.3062C66.1023 25.1225 66.1023 25.3945 65.8339 25.848C65.5656 26.3015 65.0289 26.6643 64.3133 26.6643C63.5978 26.6643 63.0611 26.3015 62.7927 25.848C62.6138 25.3945 62.5244 25.1225 62.5244 24.3062V16.3248L59.9304 21.948C59.4832 22.7643 59.1254 23.1271 58.3204 23.1271C57.5153 23.1271 57.0681 22.855 56.6209 21.948Z" fill="#F69220"/>
<path d="M64.4918 26.7556C63.7762 26.7556 63.1501 26.3928 62.8818 25.8486C62.6134 25.3952 62.6134 25.1231 62.6134 24.3068V16.8696L60.0195 22.0393C59.5722 22.8556 59.2144 23.3091 58.2305 23.3091C57.336 23.3091 56.8888 22.8556 56.4416 22.0393L53.8476 16.8696V24.3068C53.8476 25.1231 53.8476 25.3952 53.5793 25.8486C53.3109 26.3928 52.6848 26.7556 51.9692 26.7556C51.2536 26.7556 50.6275 26.3928 50.3592 25.8486C50.0908 25.3952 50.0908 25.0324 50.0908 24.3068V10.8835C50.0908 10.1579 50.1803 9.61376 50.6275 9.06958C50.9853 8.70679 51.3431 8.52539 51.8798 8.52539C52.327 8.52539 52.6848 8.61609 52.9531 8.79748C53.4004 9.06958 53.6687 9.61376 53.8476 9.88586L58.0516 18.0486L62.2556 9.88586C62.4345 9.61376 62.7029 9.06958 63.1501 8.79748C63.4185 8.61609 63.7762 8.52539 64.2235 8.52539C64.7602 8.52539 65.118 8.70679 65.4757 9.06958C65.923 9.52307 66.0124 10.0673 66.0124 10.8835V24.3068C66.0124 25.1231 66.0124 25.3952 65.7441 25.8486C65.8335 26.3928 65.2074 26.7556 64.4918 26.7556ZM62.8818 15.6905V24.3068C62.8818 25.1231 62.8818 25.3952 63.0607 25.7579C63.329 26.2114 63.8657 26.4835 64.4024 26.4835C65.0285 26.4835 65.4757 26.2114 65.7441 25.7579C65.923 25.3952 65.923 25.1231 65.923 24.3068V10.8835C65.923 10.1579 65.8335 9.70446 65.4757 9.34167C65.2074 9.06958 64.8496 8.88818 64.4024 8.88818C64.0446 8.88818 63.7762 8.97888 63.4185 9.16027C63.1501 9.34167 62.8818 9.70446 62.6134 10.1579L58.1411 18.7742L53.6687 10.1579C53.4004 9.70446 53.132 9.34167 52.8637 9.16027C52.5953 8.97888 52.327 8.88818 51.8798 8.88818C51.4325 8.88818 51.0747 9.06958 50.8064 9.34167C50.4486 9.70446 50.3592 10.2486 50.3592 10.8835V24.3068C50.3592 25.1231 50.3592 25.3952 50.5381 25.7579C50.8064 26.2114 51.3431 26.4835 51.8798 26.4835C52.5059 26.4835 52.9531 26.2114 53.2215 25.7579C53.6687 25.3952 53.6687 25.1231 53.6687 24.3068V15.6905L56.7994 21.8579C57.2466 22.7649 57.6044 23.037 58.32 23.037C59.0355 23.037 59.3933 22.7649 59.8406 21.8579L62.8818 15.6905Z" fill="#F69220"/>
<path d="M73.795 26.6637C72.5428 26.6637 71.4694 26.2102 70.7538 25.4847C69.6805 24.3963 69.4121 23.2172 69.4121 21.7661V15.5986C69.4121 14.7823 69.4121 14.5102 69.591 14.1475C69.8593 13.694 70.3066 13.4219 70.9327 13.4219C71.5588 13.4219 72.0955 13.694 72.2744 14.1475C72.4533 14.5102 72.4533 14.7823 72.4533 15.5986V21.3126C72.4533 23.0358 73.5267 23.6707 74.6001 23.6707C75.584 23.6707 76.7468 23.1265 76.7468 21.3126V15.5986C76.7468 14.7823 76.7468 14.5102 76.9257 14.1475C77.194 13.694 77.6413 13.4219 78.2674 13.4219C78.8935 13.4219 79.4302 13.694 79.6091 14.1475C79.788 14.5102 79.788 14.7823 79.788 15.5986V24.3056C79.788 25.1219 79.788 25.394 79.5196 25.7568C79.2513 26.2102 78.7146 26.4823 78.1779 26.4823C77.7307 26.4823 77.3729 26.3009 77.194 26.1195C76.9257 25.8475 76.8362 25.5754 76.7468 25.2126C76.2101 26.2102 74.9578 26.6637 73.795 26.6637Z" fill="#F69220"/>
<path d="M73.7946 26.846C72.5424 26.846 71.469 26.3925 70.664 25.6669C69.7695 24.7599 69.3223 23.5809 69.3223 21.8576V15.6902C69.3223 14.8739 69.3223 14.6018 69.5012 14.1483C69.7695 13.6041 70.3062 13.332 71.0218 13.332C71.7373 13.332 72.274 13.6041 72.5424 14.1483C72.7213 14.5111 72.7213 14.8739 72.7213 15.6902V21.4041C72.7213 23.3995 74.2419 23.5809 74.6891 23.5809C75.1363 23.5809 76.6569 23.3995 76.6569 21.4041V15.6902C76.6569 14.8739 76.6569 14.6018 76.8358 14.1483C77.1042 13.6041 77.6409 13.332 78.3564 13.332C79.072 13.332 79.6087 13.6041 79.877 14.1483C80.0559 14.5111 80.0559 14.8739 80.0559 15.6902V24.3971C80.0559 25.2134 80.0559 25.4855 79.7876 25.939C79.5192 26.3925 78.9826 26.7553 78.267 26.7553C77.8198 26.7553 77.462 26.5739 77.1936 26.3018C76.9253 26.1204 76.8358 25.8483 76.7464 25.5762C76.1203 26.3925 74.9574 26.846 73.7946 26.846ZM71.1112 13.6041C70.4851 13.6041 70.0378 13.8762 69.8589 14.3297C69.6801 14.6018 69.6801 14.9646 69.6801 15.6902V21.8576C69.6801 23.4902 70.0378 24.5785 70.9323 25.3948C71.6479 26.1204 72.6318 26.4832 73.8841 26.4832C75.0469 26.4832 76.2097 26.0297 77.0147 25.1227L77.1936 24.9413L77.2831 25.2134C77.3725 25.6669 77.462 25.8483 77.7303 26.1204C77.9986 26.3018 78.267 26.4832 78.6248 26.4832C79.1615 26.4832 79.6981 26.2111 79.877 25.8483C80.0559 25.4855 80.0559 25.3041 80.0559 24.4878V15.7809C80.0559 14.9646 80.0559 14.6925 79.877 14.4204C79.6981 13.9669 79.1615 13.6948 78.6248 13.6948C78.0881 13.6948 77.5514 13.9669 77.3725 14.4204C77.1936 14.6925 77.1936 15.0553 77.1936 15.7809V21.4948C77.1936 23.3088 76.0308 23.9437 74.9574 23.9437C73.8841 23.9437 72.7213 23.3088 72.7213 21.4948V15.7809C72.7213 14.9646 72.7213 14.6925 72.5424 14.4204C72.0951 13.8762 71.6479 13.6041 71.1112 13.6041Z" fill="#F69220"/>
<path d="M90.8786 14.059C91.5941 14.4218 92.3992 15.0567 92.3992 15.873C92.3992 16.3265 92.2203 16.5986 91.9519 16.9614C91.773 17.2335 91.3258 17.4149 90.968 17.4149C90.6102 17.4149 90.3419 17.3242 89.8946 16.9614C89.358 16.5986 89.0002 16.4172 88.374 16.4172C87.6585 16.4172 87.0323 16.6893 86.5851 17.2335C86.1379 17.8684 85.8695 18.6846 85.8695 20.0451C85.8695 21.4056 86.0484 22.3125 86.5851 22.9474C87.0323 23.4916 87.6585 23.7637 88.374 23.7637C89.0002 23.7637 89.358 23.5823 89.8946 23.2195C90.3419 22.8567 90.6102 22.766 90.968 22.766C91.3258 22.766 91.6836 22.9474 91.9519 23.2195C92.2203 23.4916 92.3992 23.8544 92.3992 24.3079C92.3992 25.1242 91.5941 25.759 90.8786 26.1218C90.163 26.5753 89.358 26.7567 88.374 26.7567C85.8695 26.7567 82.6494 25.3963 82.6494 20.1358C82.6494 14.8753 85.7801 13.5149 88.374 13.5149C89.358 13.4242 90.0735 13.6056 90.8786 14.059Z" fill="#F69220"/>
<path d="M88.2844 26.8471C87.211 26.8471 85.6904 26.575 84.3487 25.4866C83.0964 24.3075 82.3809 22.4936 82.3809 20.1355C82.3809 17.6866 83.007 15.9634 84.3487 14.7843C85.601 13.6052 87.211 13.4238 88.2844 13.4238C89.2683 13.4238 90.0733 13.6052 90.8783 14.0587C91.5939 14.4215 92.4884 15.0564 92.4884 15.9634C92.4884 16.4169 92.3095 16.7796 92.0412 17.1424C91.7728 17.4145 91.3256 17.5959 90.9678 17.5959C90.61 17.5959 90.2522 17.5052 89.805 17.1424C89.2683 16.7796 88.9105 16.5982 88.3738 16.5982C87.6583 16.5982 87.1216 16.8703 86.6743 17.4145C86.2271 18.0494 85.9587 18.8657 85.9587 20.1355C85.9587 21.4959 86.1376 22.3122 86.6743 22.9471C87.1216 23.4913 87.6583 23.7634 88.3738 23.7634C88.9105 23.7634 89.3577 23.582 89.805 23.2192C90.2522 22.9471 90.5206 22.675 90.9678 22.675C91.3256 22.675 91.7728 22.8564 92.0412 23.1285C92.399 23.4913 92.4884 23.8541 92.4884 24.3075C92.4884 25.0331 91.9517 25.668 90.8783 26.3029C90.0733 26.6657 89.3577 26.8471 88.2844 26.8471ZM88.3738 13.6052C86.6743 13.6052 82.8281 14.2401 82.8281 20.0448C82.8281 25.9401 86.6743 26.575 88.3738 26.575C89.3577 26.575 90.0733 26.3936 90.7889 25.9401C91.7728 25.3959 92.2201 24.8517 92.2201 24.2169C92.2201 23.8541 92.0412 23.582 91.7728 23.2192C91.5939 23.0378 91.2361 22.8564 90.8783 22.8564C90.5206 22.8564 90.2522 22.9471 89.8944 23.3099C89.3577 23.7634 88.9105 23.8541 88.2844 23.8541C87.4794 23.8541 86.8532 23.582 86.406 22.9471C85.8693 22.3122 85.6904 21.4052 85.6904 20.0448C85.6904 18.6843 85.9587 17.7773 86.406 17.1424C86.8532 16.5982 87.4794 16.2355 88.2844 16.2355C89 16.2355 89.3577 16.4169 89.8944 16.7796C90.3417 17.0517 90.61 17.2331 90.8783 17.2331C91.2361 17.2331 91.5045 17.0517 91.7728 16.8703C92.0412 16.5982 92.2201 16.2355 92.2201 15.8727C92.2201 15.0564 91.3256 14.4215 90.7889 14.1494C90.0733 13.7866 89.3577 13.6052 88.3738 13.6052Z" fill="#F69220"/>
<path d="M105.011 25.848C104.743 26.3015 104.296 26.5736 103.67 26.5736C103.044 26.5736 102.507 26.3015 102.328 25.848C102.149 25.4852 102.149 25.2132 102.149 24.3969V18.6829C102.149 16.9597 101.076 16.3248 100.002 16.3248C98.929 16.3248 97.8557 16.869 97.8557 18.6829V24.3969C97.8557 25.2132 97.8557 25.4852 97.6768 25.848C97.4084 26.3015 96.9612 26.5736 96.3351 26.5736C95.7089 26.5736 95.1722 26.3015 94.9933 25.848C94.8145 25.4852 94.8145 25.2132 94.8145 24.3969V10.9736C94.8145 10.1573 94.8145 9.88525 94.9933 9.52246C95.2617 9.06897 95.7089 8.79688 96.3351 8.79688C96.9612 8.79688 97.4979 9.06897 97.6768 9.52246C97.8557 9.88525 97.8557 10.1573 97.8557 10.9736V14.7829C98.6607 13.9666 99.5552 13.4225 100.986 13.4225C102.239 13.4225 103.312 13.8759 104.028 14.6015C105.101 15.6899 105.369 16.869 105.369 18.3201V24.4876C105.28 25.2132 105.19 25.4852 105.011 25.848Z" fill="#F69220"/>
<path d="M103.67 26.7548C102.954 26.7548 102.418 26.4827 102.149 25.9385C101.97 25.5757 101.97 25.2129 101.97 24.3966V18.6827C101.97 16.6873 100.45 16.5059 100.003 16.5059C99.5553 16.5059 98.0347 16.6873 98.0347 18.6827V24.3966C98.0347 25.2129 98.0347 25.485 97.8558 25.9385C97.5875 26.4827 97.0508 26.7548 96.3352 26.7548C95.6197 26.7548 95.083 26.4827 94.8146 25.9385C94.6357 25.5757 94.6357 25.2129 94.6357 24.3966V10.9734C94.6357 10.1571 94.6357 9.885 94.8146 9.43151C95.083 8.88733 95.6197 8.61523 96.3352 8.61523C97.0508 8.61523 97.5875 8.88733 97.8558 9.43151C98.0347 9.7943 98.0347 10.1571 98.0347 10.9734V14.5106C98.9292 13.6943 99.8237 13.3315 100.986 13.3315C102.239 13.3315 103.312 13.785 104.117 14.5106C105.012 15.4176 105.459 16.5966 105.459 18.3199V24.4873C105.459 25.3036 105.459 25.5757 105.28 26.0292C104.922 26.4827 104.385 26.7548 103.67 26.7548ZM100.003 16.2338C101.076 16.2338 102.239 16.8687 102.239 18.6827V24.3966C102.239 25.2129 102.239 25.485 102.418 25.7571C102.597 26.2106 103.133 26.4827 103.67 26.4827C104.207 26.4827 104.743 26.2106 104.922 25.7571C105.101 25.485 105.101 25.1222 105.101 24.3966V18.2292C105.101 16.5966 104.743 15.5083 103.849 14.692C103.133 13.9664 102.149 13.6036 100.897 13.6036C99.6448 13.6036 98.7503 13.9664 97.8558 14.8734L97.5875 15.1455V10.9734C97.5875 10.1571 97.5875 9.885 97.4086 9.61291C97.2297 9.15942 96.693 8.88733 96.1563 8.88733C95.5302 8.88733 95.083 9.15942 94.9041 9.61291C94.7252 9.885 94.7252 10.2478 94.7252 10.9734V24.4873C94.7252 25.3036 94.7252 25.5757 94.9041 25.8478C95.083 26.3013 95.6197 26.5734 96.1563 26.5734C96.693 26.5734 97.2297 26.3013 97.4086 25.8478C97.5875 25.5757 97.5875 25.2129 97.5875 24.4873V18.7734C97.6769 16.8687 98.8398 16.2338 100.003 16.2338Z" fill="#F69220"/>
</g>
<defs>
<clipPath id="clip0_137_116">
<rect width="178" height="39" fill="white"/>
</clipPath>
</defs>
</svg>
